<svg width="16" height="16" viewBox="0 0 16 16" fill="none" xmlns="http://www.w3.org/2000/svg">
<path d="M7.99992 1.33333C4.31992 1.33333 1.33325 4.32 1.33325 8C1.33325 11.68 4.31992 14.6667 7.99992 14.6667C11.6799 14.6667 14.6666 11.68 14.6666 8C14.6666 4.32 11.6799 1.33333 7.99992 1.33333ZM7.99992 13.3333C5.05992 13.3333 2.66659 10.94 2.66659 8C2.66659 5.06 5.05992 2.66667 7.99992 2.66667C10.9399 2.66667 13.3333 5.06 13.3333 8C13.3333 10.94 10.9399 13.3333 7.99992 13.3333ZM11.0599 5.05333L6.66659 9.44667L4.93992 7.72667L3.99992 8.66667L6.66659 11.3333L11.9999 6L11.0599 5.05333Z" fill="#D0D5DD"/>
</svg>
