<svg width="22" height="22" viewBox="0 0 22 22" fill="none" xmlns="http://www.w3.org/2000/svg">
<path d="M11.0002 1.83333C5.94016 1.83333 1.8335 5.94 1.8335 11C1.8335 16.06 5.94016 20.1667 11.0002 20.1667C16.0602 20.1667 20.1668 16.06 20.1668 11C20.1668 5.94 16.0602 1.83333 11.0002 1.83333ZM11.0002 18.3333C6.95766 18.3333 3.66683 15.0425 3.66683 11C3.66683 6.9575 6.95766 3.66667 11.0002 3.66667C15.0427 3.66667 18.3335 6.9575 18.3335 11C18.3335 15.0425 15.0427 18.3333 11.0002 18.3333ZM15.2077 6.94833L9.16683 12.9892L6.79266 10.6242L5.50016 11.9167L9.16683 15.5833L16.5002 8.25L15.2077 6.94833Z" fill="#98A2B3"/>
</svg>
