<svg width="22" height="22" viewBox="0 0 22 22" fill="none" xmlns="http://www.w3.org/2000/svg">
<path d="M10.9999 1.83333C5.93992 1.83333 1.83325 5.94 1.83325 11C1.83325 16.06 5.93992 20.1667 10.9999 20.1667C16.0599 20.1667 20.1666 16.06 20.1666 11C20.1666 5.94 16.0599 1.83333 10.9999 1.83333ZM10.9999 18.3333C6.95742 18.3333 3.66659 15.0425 3.66659 11C3.66659 6.9575 6.95742 3.66667 10.9999 3.66667C15.0424 3.66667 18.3333 6.9575 18.3333 11C18.3333 15.0425 15.0424 18.3333 10.9999 18.3333ZM15.2074 6.94833L9.16658 12.9892L6.79242 10.6242L5.49992 11.9167L9.16658 15.5833L16.4999 8.25L15.2074 6.94833Z" fill="#98A2B3"/>
</svg>
