<svg width="63" height="28" viewBox="0 0 63 28" fill="none" xmlns="http://www.w3.org/2000/svg">
<g clip-path="url(#clip0_2905_9522)">
<path d="M0.564453 21.8H13.2485V18.244H5.10045V1.78003H0.564453V21.8Z" fill="black"/>
<path d="M21.587 19.0281C19.291 19.0281 18.003 17.3481 18.003 14.5481V14.3241C18.003 11.5241 19.347 9.90007 21.587 9.90007C23.855 9.90007 25.171 11.5801 25.171 14.3801V14.5761C25.171 17.3481 23.855 19.0281 21.587 19.0281ZM21.559 22.1081C25.955 22.1081 29.287 19.1681 29.287 14.5481V14.3241C29.287 9.76007 25.983 6.82007 21.587 6.82007C17.191 6.82007 13.859 9.81607 13.859 14.4081V14.6321C13.859 19.1961 17.191 22.1081 21.559 22.1081Z" fill="black"/>
<path d="M37.665 27.2041C42.481 27.2041 45.3649 24.9921 45.3929 20.6521V7.15607H41.361V9.34007C40.521 7.85607 39.0929 6.82007 36.7129 6.82007C33.0729 6.82007 30.2729 9.76007 30.2729 13.9601V14.1561C30.2729 18.4961 33.1009 21.1561 36.6569 21.1561C38.8129 21.1561 40.549 19.8681 41.361 18.4401V20.6521C41.361 22.9481 40.129 24.2361 37.665 24.2361C35.593 24.2361 34.669 23.3961 34.417 22.1081H30.3849C30.7769 25.1321 32.933 27.2041 37.665 27.2041ZM37.861 18.1041C35.845 18.1041 34.417 16.5921 34.417 14.1561V13.9321C34.417 11.5241 35.677 9.90007 37.945 9.90007C40.1569 9.90007 41.4729 11.4121 41.4729 13.9041V14.1001C41.4729 16.5921 39.989 18.1041 37.861 18.1041Z" fill="black"/>
<path d="M54.9616 19.0281C52.6656 19.0281 51.3776 17.3481 51.3776 14.5481V14.3241C51.3776 11.5241 52.7216 9.90007 54.9616 9.90007C57.2296 9.90007 58.5456 11.5801 58.5456 14.3801V14.5761C58.5456 17.3481 57.2296 19.0281 54.9616 19.0281ZM54.9336 22.1081C59.3296 22.1081 62.6616 19.1681 62.6616 14.5481V14.3241C62.6616 9.76007 59.3576 6.82007 54.9616 6.82007C50.5656 6.82007 47.2336 9.81607 47.2336 14.4081V14.6321C47.2336 19.1961 50.5656 22.1081 54.9336 22.1081Z" fill="black"/>
</g>
<defs>
<clipPath id="clip0_2905_9522">
<rect width="63" height="27" fill="white" transform="translate(0 0.800049)"/>
</clipPath>
</defs>
</svg>
